<?xml version="1.0" encoding="utf-8"?>
<!-- Generator: Adobe Illustrator 16.0.0, SVG Export Plug-In . SVG Version: 6.00 Build 0)  -->
<!DOCTYPE svg PUBLIC "-//W3C//DTD SVG 1.1//EN" "http://www.w3.org/Graphics/SVG/1.1/DTD/svg11.dtd">
<svg version="1.1"
	 id="svg8" sodipodi:docname="LOgoEA.svg" inkscape:version="1.0.1 (3bc2e813f5, 2020-09-07)" xmlns:dc="http://purl.org/dc/elements/1.1/" xmlns:cc="http://creativecommons.org/ns#" xmlns:rdf="http://www.w3.org/1999/02/22-rdf-syntax-ns#" xmlns:svg="http://www.w3.org/2000/svg" xmlns:sodipodi="http://sodipodi.sourceforge.net/DTD/sodipodi-0.dtd" xmlns:inkscape="http://www.inkscape.org/namespaces/inkscape"
	 xmlns="http://www.w3.org/2000/svg" xmlns:xlink="http://www.w3.org/1999/xlink" x="0px" y="0px" width="595.275px"
	 height="841.89px" viewBox="0 0 595.275 841.89" enable-background="new 0 0 595.275 841.89" xml:space="preserve">
<filter  id="filter1104" y="-7.280509e-05" x="-4.9313793e-05" style="color-interpolation-filters:sRGB" width="1.0000986" height="1.0001456" inkscape:collect="always">
	<feGaussianBlur  id="feGaussianBlur1106" inkscape:collect="always" stdDeviation="0.0031531718"></feGaussianBlur>
</filter>
<sodipodi:namedview  id="base" inkscape:window-y="-8" inkscape:window-x="-8" inkscape:window-height="706" inkscape:window-width="1024" inkscape:guide-bbox="true" inkscape:snap-global="false" inkscape:current-layer="layer4" inkscape:document-units="mm" inkscape:pageshadow="2" inkscape:pageopacity="0.0" inkscape:window-maximized="1" inkscape:document-rotation="0" inkscape:cy="592.64295" showguides="true" inkscape:cx="355.00607" inkscape:zoom="0.49497475" borderopacity="1.0" showgrid="false" bordercolor="#666666" pagecolor="#ffffff">
	</sodipodi:namedview>
<g id="layer1" transform="matrix(1,0,0,1.0876699,0,-25.431724)" inkscape:label="Capa 1" sodipodi:insensitive="true" inkscape:groupmode="layer" display="none" opacity="0.997">
	
		<image display="inline" overflow="visible" opacity="0.3205" enable-background="new    " width="373" height="500" id="image843" xlink:href="28350CA5.png"  transform="matrix(1.6272 0 0 1.4463 -14.1924 44.4234)">
	</image>
</g>
<g id="layer3" inkscape:label="Capa 3" inkscape:groupmode="layer">
	
		<path id="path882" sodipodi:nodetypes="ccccccc" opacity="0.997" fill="#FFFFFF" stroke="#FFFFFF" stroke-width="0.2646" enable-background="new    " d="
		M165.16,427.3l0.757,245.088l131.825-1.516l-0.758-25.758h-98.951V450.029L165.16,427.3z"/>
	
		<path id="path892" sodipodi:nodetypes="ccccc" opacity="0.997" fill="#FFFFFF" stroke="#FFFFFF" stroke-width="0.2646" enable-background="new    " d="
		M396.99,595.49l20.373,13.637V766.71l-20.909,0.666L396.99,595.49z"/>
	
		<path id="path888" sodipodi:nodetypes="ccccc" opacity="0.997" fill="#FFFFFF" stroke="#FFFFFF" stroke-width="0.2646" enable-background="new    " d="
		M323.389,542.126l1.136,145.84l19.433-0.379c-0.758-39.395,0.758-131.445,0.758-131.445L323.389,542.126z"/>
	
		<path id="path880" sodipodi:nodetypes="ccccccc" opacity="0.997" fill="#FFFFFF" stroke="#FFFFFF" stroke-width="0.2646" enable-background="new    " d="
		M164.781,399.255l-0.082-114.021l140.917,1.515v27.274l-109.097-1.515l1.515,110.233L164.781,399.255z"/>
	
		<path id="path890" sodipodi:nodetypes="cccsccccscc" opacity="0.997" fill="#FFFFFF" stroke="#FFFFFF" stroke-width="0.2646" enable-background="new    " d="
		M343.957,531.466l-20.537-15.16l-0.41-168.19c0,0,3.44-61.367,48.14-61.367s46.593,62.125,46.593,62.125l-1.136,235.997
		l-18.562-13.258l-0.379-215.542c0,0,0.334-42.641-26.138-42.332c-25.802,0.302-28.789,41.195-28.789,41.195L343.957,531.466z"/>
	<path id="path949" fill="#FFFFFF" stroke="#FFFFFF" stroke-width="0.2646" d="M46.071,334.286c0,0,7.5,6.429,18.214,3.214
		l4.286,199.287c0,0-26.786,7.5-28.928-31.072C37.5,467.142,46.071,334.286,46.071,334.286L46.071,334.286z"/>
	<path id="path949-4" fill="#FFFFFF" stroke="#FFFFFF" stroke-width="0.2646" d="M541.622,336.686c0,0-7.5,6.429-18.215,3.214
		l-4.285,199.285c0,0,26.785,7.5,28.929-31.07C550.193,469.542,541.622,336.686,541.622,336.686L541.622,336.686z"/>
</g>
<g id="layer2" inkscape:label="Capa 2" inkscape:groupmode="layer">
	<a id="a869">
		<path id="path866" sodipodi:nodetypes="ccccccac" fill="#FFFFFF" stroke="#FFFFFF" stroke-width="1" d="M50.76,234.103
			c-9.94,10.544-1.136,19.32-1.136,19.32s6.439,7.197,26.895-1.894c65.011-42.765,115.851-83.159,230.583-89.452
			c112.031,9.619,137.355,38.018,184.459,69.976c30.91,21.635,94.718,47.081,59.018-1.998
			c-84.028-68.847-157.481-101.231-246.193-101.083C212.869,129.125,105.027,183.995,50.76,234.103z"/>
	</a>
	<path id="path872" sodipodi:nodetypes="csscccsccc" fill="#FFFFFF" stroke="#FFFFFF" stroke-width="0.2646" d="M561.813,267.752
		c-14.005,41.592-106.487-20.012-117.094-26.831s-87.256-50.187-153.168-48.671c-65.913,1.516-129.131,45.143-129.131,45.143
		s-58.583,32.989-89.69,43.682c-27.274,3.788-26.517-21.971-26.517-21.971s8.924,12.328,18.259,11.364
		c13.577-1.401,154.735-92.207,224.622-94.312c100.837-3.574,169.527,57.97,244.449,93.555
		C547.182,272.741,561.813,267.752,561.813,267.752z"/>
	<path id="path874" sodipodi:nodetypes="cscc" fill="#FFFFFF" stroke="#FFFFFF" stroke-width="1" d="M34.092,286.378
		c0,0-15.931,46.532,26.517,45.836c46.215-0.758,29.548-44.321,29.548-44.321C57.958,334.486,34.092,286.378,34.092,286.378
		L34.092,286.378z"/>
	<path id="path874-3" sodipodi:nodetypes="cscc" fill="#FFFFFF" stroke="#FFFFFF" stroke-width="0.2646" d="M501.438,285.948
		c0,0-15.932,46.531,26.517,45.835c46.215-0.757,29.548-44.32,29.548-44.32C525.304,334.057,501.438,285.948,501.438,285.948
		L501.438,285.948z"/>
	<path id="path1041" sodipodi:nodetypes="cscscscc" fill="#FFFFFF" stroke="#FFFFFF" stroke-width="0.2646" d="M455.326,607.607
		c0,0,14.395-59.852,12.88-120.461c-1.516-60.609-0.758-106.824-21.214-108.339c0,0,10.607-9.091,16.668-9.091
		s12.879,8.712,12.879,8.712s24.623,36.745,20.077,117.81c-4.546,81.064-19.319,127.279-19.319,127.279L455.326,607.607z"/>
	<path id="path1043" sodipodi:nodetypes="ccssc" fill="#FFFFFF" stroke="#FFFFFF" stroke-width="0.2646" d="M496.995,411.385
		c0,0,17.425,119.703,0,180.312c0,0,15.152-17.047,16.667-50.381c1.516-33.336-2.272-91.672-4.924-103.793
		C506.204,425.937,496.995,411.385,496.995,411.385z"/>
	<path id="path1045" fill="#FFFFFF" stroke="#FFFFFF" stroke-width="0.2646" d="M429.567,393.959l12.88-9.091
		c0,0,19.697,6.061,18.939,106.065c-0.757,100.006-13.637,111.371-13.637,111.371l-8.334-6.063c0,0,6.819-33.334,6.062-107.58
		C444.72,414.415,440.174,400.778,429.567,393.959L429.567,393.959z"/>
	<path id="path1047" fill="#FFFFFF" stroke="#FFFFFF" stroke-width="0.2646" d="M428.052,586.394l0.758-176.525
		c0,0,9.849,19.699,9.092,81.822C437.144,553.816,428.052,586.394,428.052,586.394z"/>
	<path id="path1041-2" sodipodi:nodetypes="cscscscc" fill="#FFFFFF" stroke="#FFFFFF" stroke-width="0.2646" d="M130.862,407.334
		c0,0-14.395,59.851-12.879,120.46s0.757,106.824,21.213,108.34c0,0-10.606,9.09-16.667,9.09c-6.061,0-12.879-8.711-12.879-8.711
		s-24.623-36.746-20.077-117.811s19.319-127.279,19.319-127.279L130.862,407.334z"/>
	<path id="path1043-3" sodipodi:nodetypes="ccssc" fill="#FFFFFF" stroke="#FFFFFF" stroke-width="0.2646" d="M89.193,603.556
		c0,0-17.425-119.703,0-180.313c0,0-15.152,17.047-16.667,50.381c-1.515,33.336,2.273,91.672,4.925,103.793
		C79.984,589.003,89.193,603.556,89.193,603.556L89.193,603.556z"/>
	<path id="path1045-5" fill="#FFFFFF" stroke="#FFFFFF" stroke-width="0.2646" d="M156.621,620.982l-12.879,9.09
		c0,0-19.698-6.061-18.94-106.064c0.758-100.006,13.637-111.37,13.637-111.37l8.333,6.061c0,0-6.818,33.334-6.061,107.581
		C141.468,600.525,146.014,614.164,156.621,620.982L156.621,620.982z"/>
	<path id="path1047-1" fill="#FFFFFF" stroke="#FFFFFF" stroke-width="0.2646" d="M158.136,428.546l-0.757,176.525
		c0,0-9.849-19.699-9.091-81.822C149.044,461.125,158.136,428.546,158.136,428.546z"/>
</g>
<g id="layer4" inkscape:label="Capa 4" inkscape:groupmode="layer" filter="url(#filter1104)">
	<path id="path995_1_" sodipodi:nodetypes="cccccccccccccccccccc" fill="#FFFFFF" stroke="#FFFFFF" stroke-width="0.2646" d="
		M163.329,425.314L83.571,367.5l37.5-1.071l44.28,32.822L163.329,425.314z M199.134,424.292l124.254,92.102l-0.055,24.902
		l-124.67-90.369L199.134,424.292z M416.872,585.687c20.148,14.936,101.699,75.385,101.699,75.385h-30l-70.971-51.445
		L416.872,585.687z M397.207,594.843l-52.013-37.701l-1.229-25.496l53.712,39.814L397.207,594.843z"/>
</g>
<g id="layer5" inkscape:label="Capa 5" inkscape:groupmode="layer">
</g>
</svg>
