<?xml version="1.0" encoding="utf-8"?>
<!-- Generator: Adobe Illustrator 16.0.0, SVG Export Plug-In . SVG Version: 6.00 Build 0)  -->
<!DOCTYPE svg PUBLIC "-//W3C//DTD SVG 1.1//EN" "http://www.w3.org/Graphics/SVG/1.1/DTD/svg11.dtd">
<svg version="1.1" xmlns="http://www.w3.org/2000/svg" xmlns:xlink="http://www.w3.org/1999/xlink" x="0px" y="0px" width="800px"
	 height="800px" viewBox="0 0 800 800" enable-background="new 0 0 800 800" xml:space="preserve">
<g id="Capa_2" display="none">
	
		<image display="inline" overflow="visible" width="300" height="500" xlink:href="micro.png"  transform="matrix(2.89 0 0 2.98 -33.5005 -4.882813e-004)">
	</image>
</g>
<g id="Capa_3">
	<linearGradient id="SVGID_1_" gradientUnits="userSpaceOnUse" x1="461.124" y1="265.1074" x2="530.2324" y2="265.1074">
		<stop  offset="0" style="stop-color:#00697F"/>
		<stop  offset="1" style="stop-color:#A03A47"/>
	</linearGradient>
	<path fill="none" stroke="url(#SVGID_1_)" stroke-width="21" stroke-linecap="round" stroke-miterlimit="10" d="M519.732,386.991
		c0,0-75.169-160.086-37.585-243.767"/>
	<linearGradient id="SVGID_2_" gradientUnits="userSpaceOnUse" x1="327.2437" y1="344.5449" x2="480.7773" y2="344.5449">
		<stop  offset="0" style="stop-color:#00697F"/>
		<stop  offset="1" style="stop-color:#A03A47"/>
	</linearGradient>
	
		<line fill="none" stroke="url(#SVGID_2_)" stroke-width="21" stroke-linecap="round" stroke-miterlimit="10" x1="337.744" y1="291.79" x2="470.277" y2="397.301"/>
	<linearGradient id="SVGID_3_" gradientUnits="userSpaceOnUse" x1="112.2866" y1="345.1494" x2="385.1689" y2="345.1494">
		<stop  offset="0" style="stop-color:#00697F"/>
		<stop  offset="1" style="stop-color:#A03A47"/>
	</linearGradient>
	
		<line fill="none" stroke="url(#SVGID_3_)" stroke-width="21" stroke-linecap="round" stroke-miterlimit="10" x1="122.787" y1="286.936" x2="374.669" y2="403.362"/>
	<linearGradient id="SVGID_4_" gradientUnits="userSpaceOnUse" x1="150.5293" y1="467.1953" x2="414.5117" y2="467.1953">
		<stop  offset="0" style="stop-color:#00697F"/>
		<stop  offset="1" style="stop-color:#A03A47"/>
	</linearGradient>
	<path fill="none" stroke="url(#SVGID_4_)" stroke-width="21" stroke-linecap="round" stroke-miterlimit="10" d="M161.029,481.588
		c0,0,120.666-55.184,242.982-12.735"/>
	<linearGradient id="SVGID_5_" gradientUnits="userSpaceOnUse" x1="51.6226" y1="519.1816" x2="143.8359" y2="519.1816">
		<stop  offset="0" style="stop-color:#00697F"/>
		<stop  offset="1" style="stop-color:#A03A47"/>
	</linearGradient>
	
		<ellipse fill="none" stroke="url(#SVGID_5_)" stroke-width="21" stroke-linecap="round" stroke-miterlimit="10" cx="97.729" cy="519.182" rx="35.607" ry="30.926"/>
	<linearGradient id="SVGID_6_" gradientUnits="userSpaceOnUse" x1="234" y1="237" x2="314" y2="237">
		<stop  offset="0" style="stop-color:#00697F"/>
		<stop  offset="1" style="stop-color:#A03A47"/>
	</linearGradient>
	
		<rect x="244.5" y="205.5" fill="none" stroke="url(#SVGID_6_)" stroke-width="21" stroke-linecap="round" stroke-linejoin="round" stroke-miterlimit="10" width="59" height="63"/>
	<linearGradient id="SVGID_7_" gradientUnits="userSpaceOnUse" x1="337.7939" y1="189.915" x2="426.0508" y2="189.915">
		<stop  offset="0" style="stop-color:#00697F"/>
		<stop  offset="1" style="stop-color:#A03A47"/>
	</linearGradient>
	
		<ellipse fill="none" stroke="url(#SVGID_7_)" stroke-width="21" stroke-linecap="round" stroke-miterlimit="10" cx="381.922" cy="189.916" rx="33.628" ry="30.319"/>
	<linearGradient id="SVGID_8_" gradientUnits="userSpaceOnUse" x1="473.6289" y1="83.1919" x2="530.2324" y2="83.1919">
		<stop  offset="0" style="stop-color:#00697F"/>
		<stop  offset="1" style="stop-color:#A03A47"/>
	</linearGradient>
	
		<ellipse fill="none" stroke="url(#SVGID_8_)" stroke-width="21" stroke-linecap="round" stroke-miterlimit="10" cx="501.931" cy="83.191" rx="17.802" ry="18.192"/>
	<linearGradient id="SVGID_9_" gradientUnits="userSpaceOnUse" x1="602.8828" y1="129.6904" x2="763.8623" y2="129.6904">
		<stop  offset="0" style="stop-color:#00697F"/>
		<stop  offset="1" style="stop-color:#A03A47"/>
	</linearGradient>
	
		<polygon fill="none" stroke="url(#SVGID_9_)" stroke-width="21" stroke-linecap="round" stroke-linejoin="round" stroke-miterlimit="10" points="
		720.717,192.333 679.097,168.563 634.207,186.619 645.928,142.871 613.383,109.188 662.248,105.921 687.024,67.048 
		705.504,108.777 753.362,118.434 715.916,147.493 	"/>
	
		<line fill="none" stroke="#00697F" stroke-width="21" stroke-linecap="round" stroke-linejoin="round" stroke-miterlimit="10" x1="156.5" y1="65" x2="156.5" y2="92"/>
	
		<line fill="none" stroke="#00697F" stroke-width="21" stroke-linecap="round" stroke-linejoin="round" stroke-miterlimit="10" x1="182" y1="118.5" x2="216" y2="118.5"/>
	
		<line fill="none" stroke="#00697F" stroke-width="21" stroke-linecap="round" stroke-linejoin="round" stroke-miterlimit="10" x1="156.5" y1="136" x2="156.5" y2="167"/>
	
		<line fill="none" stroke="#00697F" stroke-width="21" stroke-linecap="round" stroke-linejoin="round" stroke-miterlimit="10" x1="137" y1="118.5" x2="107" y2="118.5"/>
	<linearGradient id="SVGID_10_" gradientUnits="userSpaceOnUse" x1="34.9463" y1="659.2559" x2="221.6416" y2="659.2559">
		<stop  offset="0" style="stop-color:#00697F"/>
		<stop  offset="1" style="stop-color:#A03A47"/>
	</linearGradient>
	
		<path fill="none" stroke="url(#SVGID_10_)" stroke-width="21" stroke-linecap="round" stroke-linejoin="round" stroke-miterlimit="10" d="
		M211.142,569.511c0,0-93.632,21.828-118.688,78.83c-25.056,57.001,15.826,99.449,47.476,75.192
		c31.65-24.256,13.331-64.432-7.77-70.947C111.059,646.069,18.713,675.021,53,749"/>
	<linearGradient id="SVGID_11_" gradientUnits="userSpaceOnUse" x1="283.5034" y1="404.25" x2="685.8555" y2="404.25">
		<stop  offset="0" style="stop-color:#00697F"/>
		<stop  offset="1" style="stop-color:#A03A47"/>
	</linearGradient>
	
		<path fill="none" stroke="url(#SVGID_11_)" stroke-width="21" stroke-linecap="round" stroke-linejoin="round" stroke-miterlimit="10" d="
		M597.539,236c0,0,209.683-69.734-59.347,197.072c-232.12,230.202-261.109,143.107-237.374,59.427"/>
	<linearGradient id="SVGID_12_" gradientUnits="userSpaceOnUse" x1="326.5864" y1="667.7969" x2="777.5" y2="667.7969">
		<stop  offset="0" style="stop-color:#00697F"/>
		<stop  offset="1" style="stop-color:#A03A47"/>
	</linearGradient>
	
		<polyline fill="none" stroke="url(#SVGID_12_)" stroke-width="21" stroke-linecap="round" stroke-linejoin="round" stroke-miterlimit="10" points="
		753.362,643.492 767,749 337.086,586.593 	"/>
	<linearGradient id="SVGID_13_" gradientUnits="userSpaceOnUse" x1="467.6436" y1="485.8701" x2="707.5" y2="485.8701">
		<stop  offset="0" style="stop-color:#00697F"/>
		<stop  offset="1" style="stop-color:#A03A47"/>
	</linearGradient>
	
		<path fill="none" stroke="url(#SVGID_13_)" stroke-width="21" stroke-linecap="round" stroke-linejoin="round" stroke-miterlimit="10" d="
		M697,337.871c0,82.201-61.921,209.893-218.856,295.998"/>
	<linearGradient id="SVGID_14_" gradientUnits="userSpaceOnUse" x1="602.8828" y1="601.5342" x2="735.5" y2="601.5342">
		<stop  offset="0" style="stop-color:#00697F"/>
		<stop  offset="1" style="stop-color:#A03A47"/>
	</linearGradient>
	
		<path fill="none" stroke="url(#SVGID_14_)" stroke-width="21" stroke-linecap="round" stroke-linejoin="round" stroke-miterlimit="10" d="
		M725,509c0,0-12.01,73.137-111.617,185.068"/>
	
		<line fill="none" stroke="#00697F" stroke-width="21" stroke-linecap="round" stroke-linejoin="round" stroke-miterlimit="10" x1="63" y1="297.5" x2="43" y2="297.5"/>
	
		<line fill="none" stroke="#00697F" stroke-width="21" stroke-linecap="round" stroke-linejoin="round" stroke-miterlimit="10" x1="77.946" y1="323.318" x2="68.715" y2="337.871"/>
	
		<line fill="none" stroke="#00697F" stroke-width="21" stroke-linecap="round" stroke-linejoin="round" stroke-miterlimit="10" x1="111.5" y1="331" x2="111.5" y2="354"/>
	
		<line fill="none" stroke="#00697F" stroke-width="21" stroke-linecap="round" stroke-linejoin="round" stroke-miterlimit="10" x1="77.946" y1="271.169" x2="62.123" y2="244.487"/>
	
		<line fill="none" stroke="#00697F" stroke-width="21" stroke-linecap="round" stroke-linejoin="round" stroke-miterlimit="10" x1="102.5" y1="249" x2="102.5" y2="220"/>
	
		<line fill="none" stroke="#00697F" stroke-width="21" stroke-linecap="round" stroke-linejoin="round" stroke-miterlimit="10" x1="161.688" y1="244.487" x2="137.951" y2="265.107"/>
</g>
</svg>
