<?xml version="1.0" encoding="utf-8"?>
<!-- Generator: Adobe Illustrator 16.0.0, SVG Export Plug-In . SVG Version: 6.00 Build 0)  -->
<!DOCTYPE svg PUBLIC "-//W3C//DTD SVG 1.1//EN" "http://www.w3.org/Graphics/SVG/1.1/DTD/svg11.dtd">
<svg version="1.1" xmlns="http://www.w3.org/2000/svg" xmlns:xlink="http://www.w3.org/1999/xlink" x="0px" y="0px"
	 width="595.275px" height="841.89px" viewBox="0 0 595.275 841.89" enable-background="new 0 0 595.275 841.89"
	 xml:space="preserve">
<filter  id="filter1104" y="-7.280509e-05" x="-4.9313793e-05" style="color-interpolation-filters:sRGB" width="1.0000986" height="1.0001456" inkscape:collect="always">
	<feGaussianBlur  id="feGaussianBlur1106" inkscape:collect="always" stdDeviation="0.0031531718"></feGaussianBlur>
</filter>
<g id="svg8" sodipodi:docname="LOgoEA.svg" inkscape:version="1.0.1 (3bc2e813f5, 2020-09-07)" xmlns:dc="http://purl.org/dc/elements/1.1/" xmlns:cc="http://creativecommons.org/ns#" xmlns:rdf="http://www.w3.org/1999/02/22-rdf-syntax-ns#" xmlns:svg="http://www.w3.org/2000/svg" xmlns:sodipodi="http://sodipodi.sourceforge.net/DTD/sodipodi-0.dtd" xmlns:inkscape="http://www.inkscape.org/namespaces/inkscape">
	
		<sodipodi:namedview  id="base" inkscape:window-y="-8" inkscape:window-x="-8" inkscape:window-height="706" inkscape:window-width="1024" inkscape:guide-bbox="true" inkscape:snap-global="false" inkscape:current-layer="layer4" inkscape:document-units="mm" inkscape:pageshadow="2" inkscape:pageopacity="0.0" inkscape:window-maximized="1" inkscape:document-rotation="0" inkscape:cy="592.64295" showguides="true" inkscape:cx="355.00607" inkscape:zoom="0.49497475" borderopacity="1.0" showgrid="false" bordercolor="#666666" pagecolor="#ffffff">
		</sodipodi:namedview>
	
		<g id="layer1" transform="matrix(1,0,0,1.0876699,0,-25.431724)" inkscape:label="Capa 1" sodipodi:insensitive="true" inkscape:groupmode="layer" display="none" opacity="0.997">
		
			<image display="inline" overflow="visible" opacity="0.3205" enable-background="new    " width="373" height="500" id="image843" xlink:href="D11B8613.png"  transform="matrix(1.6272 0 0 1.4463 -14.1924 44.4234)">
		</image>
	</g>
	<g id="layer3" inkscape:label="Capa 3" inkscape:groupmode="layer">
		
			<path id="path882" sodipodi:nodetypes="ccccccc" opacity="0.997" stroke="#000000" stroke-width="0.2646" enable-background="new    " d="
			M198.744,467.748l0.571,181.302l99.268-1.122l-0.571-19.053H223.5V484.559L198.744,467.748z"/>
		
			<path id="path892" sodipodi:nodetypes="ccccc" opacity="0.997" stroke="#000000" stroke-width="0.2646" enable-background="new    " d="
			M373.319,592.166l15.341,10.089v116.568l-15.744,0.493L373.319,592.166z"/>
		
			<path id="path888" sodipodi:nodetypes="ccccc" opacity="0.997" stroke="#000000" stroke-width="0.2646" enable-background="new    " d="
			M317.896,552.69l0.854,107.885l14.636-0.28c-0.571-29.145,0.569-97.237,0.569-97.237L317.896,552.69z"/>
		
			<path id="path880" sodipodi:nodetypes="ccccccc" opacity="0.997" stroke="#000000" stroke-width="0.2646" enable-background="new    " d="
			M198.459,447l-0.061-84.346l106.115,1.121v20.175l-82.154-1.12l1.142,81.546L198.459,447z"/>
		
			<path id="path890" sodipodi:nodetypes="cccsccccscc" opacity="0.997" stroke="#000000" stroke-width="0.2646" enable-background="new    " d="
			M333.385,544.802l-15.467-11.213l-0.308-124.418c0,0,2.59-45.397,36.251-45.397c33.659,0,35.085,45.957,35.085,45.957
			l-0.855,174.578l-13.978-9.808l-0.286-159.445c0,0,0.252-31.544-19.682-31.316c-19.429,0.223-21.68,30.474-21.68,30.474
			L333.385,544.802z"/>
		<path id="path949" stroke="#000000" stroke-width="0.2646" d="M109.067,398.94c0,0,5.647,4.755,13.715,2.376l3.228,147.422
			c0,0-20.171,5.549-21.784-22.985C102.613,497.218,109.067,398.94,109.067,398.94L109.067,398.94z"/>
		<path id="path949-4" stroke="#000000" stroke-width="0.2646" d="M482.23,400.713c0,0-5.646,4.758-13.716,2.379l-3.227,147.42
			c0,0,20.171,5.549,21.784-22.982C488.686,498.994,482.23,400.713,482.23,400.713L482.23,400.713z"/>
	</g>
	<g id="layer2" inkscape:label="Capa 2" inkscape:groupmode="layer">
		<a id="a869">
			<path id="path866" sodipodi:nodetypes="ccccccac" stroke="#000000" stroke-width="1" d="M112.598,324.829
				c-7.485,7.8-0.854,14.292-0.854,14.292s4.849,5.324,20.252-1.401c48.955-31.635,87.238-61.517,173.634-66.172
				c84.364,7.116,103.434,28.124,138.904,51.765c23.276,16.004,71.324,34.828,44.441-1.478
				c-63.276-50.93-118.588-74.886-185.389-74.776C234.671,247.172,153.462,287.761,112.598,324.829z"/>
		</a>
		<path id="path872" sodipodi:nodetypes="csscccsccc" stroke="#000000" stroke-width="0.2646" d="M497.436,349.721
			c-10.547,30.767-80.188-14.804-88.175-19.848c-7.986-5.044-65.706-37.125-115.34-36.004
			c-49.634,1.121-97.239,33.395-97.239,33.395s-44.115,24.404-67.54,32.313c-20.538,2.803-19.967-16.253-19.967-16.253
			s6.719,9.12,13.749,8.408c10.224-1.037,116.52-68.21,169.146-69.768c75.934-2.644,127.659,42.883,184.077,69.207
			C486.418,353.412,497.436,349.721,497.436,349.721z"/>
		<path id="path874" sodipodi:nodetypes="cscc" stroke="#000000" stroke-width="1" d="M100.046,363.5
			c0,0-11.996,34.421,19.968,33.908c34.801-0.562,22.251-32.787,22.251-32.787C118.019,399.088,100.046,363.5,100.046,363.5
			L100.046,363.5z"/>
		<path id="path874-3" sodipodi:nodetypes="cscc" stroke="#000000" stroke-width="0.2646" d="M451.972,363.181
			c0,0-11.996,34.421,19.967,33.907c34.802-0.56,22.25-32.786,22.25-32.786C469.942,398.769,451.972,363.181,451.972,363.181
			L451.972,363.181z"/>
		<path id="path1041" sodipodi:nodetypes="cscscscc" stroke="#000000" stroke-width="0.2646" d="M417.248,601.127
			c0,0,10.839-44.274,9.699-89.108c-1.142-44.839-0.572-79.024-15.975-80.145c0,0,7.988-6.727,12.552-6.727
			c4.563,0,9.697,6.446,9.697,6.446s18.543,27.18,15.118,87.149c-3.424,59.965-14.548,94.153-14.548,94.153L417.248,601.127z"/>
		<path id="path1043" sodipodi:nodetypes="ccssc" stroke="#000000" stroke-width="0.2646" d="M448.625,455.971
			c0,0,13.122,88.551,0,133.387c0,0,11.411-12.608,12.552-37.27c1.142-24.658-1.712-67.813-3.709-76.78
			C455.561,466.739,448.625,455.971,448.625,455.971z"/>
		<path id="path1045" stroke="#000000" stroke-width="0.2646" d="M397.851,443.083l9.699-6.726c0,0,14.832,4.481,14.261,78.461
			c-0.569,73.979-10.269,82.387-10.269,82.387l-6.275-4.485c0,0,5.136-24.657,4.564-79.582
			C409.261,458.215,405.838,448.127,397.851,443.083L397.851,443.083z"/>
		<path id="path1047" stroke="#000000" stroke-width="0.2646" d="M396.709,585.438l0.57-130.586c0,0,7.417,14.572,6.847,60.525
			C403.555,561.338,396.709,585.438,396.709,585.438z"/>
		<path id="path1041-2" sodipodi:nodetypes="cscscscc" stroke="#000000" stroke-width="0.2646" d="M172.917,452.978
			c0,0-10.84,44.273-9.699,89.107c1.141,44.837,0.57,79.023,15.974,80.146c0,0-7.988,6.725-12.551,6.725
			c-4.564,0-9.699-6.446-9.699-6.446s-18.542-27.184-15.118-87.148c3.423-59.967,14.547-94.152,14.547-94.152L172.917,452.978z"/>
		<path id="path1043-3" sodipodi:nodetypes="ccssc" stroke="#000000" stroke-width="0.2646" d="M141.539,598.13
			c0,0-13.122-88.551,0-133.385c0,0-11.41,12.609-12.551,37.268c-1.14,24.661,1.711,67.814,3.709,76.781
			C134.604,587.366,141.539,598.13,141.539,598.13L141.539,598.13z"/>
		<path id="path1045-5" stroke="#000000" stroke-width="0.2646" d="M192.314,611.02l-9.7,6.728c0,0-14.833-4.483-14.262-78.462
			c0.571-73.98,10.27-82.387,10.27-82.387l6.275,4.483c0,0-5.135,24.661-4.564,79.584
			C180.904,595.889,184.327,605.978,192.314,611.02L192.314,611.02z"/>
		<path id="path1047-1" stroke="#000000" stroke-width="0.2646" d="M193.455,468.668l-0.571,130.584c0,0-7.416-14.572-6.845-60.528
			C186.608,492.768,193.455,468.668,193.455,468.668z"/>
	</g>
	<g id="layer4" inkscape:label="Capa 4" inkscape:groupmode="layer" filter="url(#filter1104)">
		<path id="path995_15_" sodipodi:nodetypes="cccccccccccccccccccc" stroke="#000000" stroke-width="0.2646" d="M231.724,474.771
			l-60.06-42.766l28.238-0.792l33.345,24.279L231.724,474.771z M258.687,474.016l93.567,68.133l-0.042,18.422l-93.88-66.851
			L258.687,474.016z M422.649,593.41c15.172,11.046,76.581,55.764,76.581,55.764h-22.59l-53.443-38.055L422.649,593.41z
			 M407.841,600.182l-39.166-27.889l-0.926-18.861l40.446,29.45L407.841,600.182z"/>
	</g>
	<g id="layer5" inkscape:label="Capa 5" inkscape:groupmode="layer">
	</g>
</g>
<g id="Capa_2">
	<g>
		<g>
			<path stroke="#000000" d="M64.137,298.655c-10.083-10.118-20.166-20.236-30.249-30.354c8.465-8.438,17.309-16.495,26.5-24.135
				c1.292,1.557,1.938,2.336,3.229,3.894c-7.4,6.15-14.571,12.575-21.497,19.255c3.634,3.772,5.452,5.657,9.086,9.429
				c7.582-7.31,11.471-10.805,19.422-17.478c1.299,1.551,1.948,2.326,3.247,3.877c-7.844,6.583-11.682,10.031-19.161,17.242
				c4.048,4.202,6.072,6.302,10.12,10.503c7.973-7.687,12.075-11.345,20.478-18.288c1.287,1.561,1.93,2.342,3.217,3.903
				C80.135,283.671,72.082,290.99,64.137,298.655z"/>
			<path stroke="#000000" d="M86.727,265.984c1.505-1.626,2.262-2.434,3.79-4.037c1.598,1.535,3.283,2.29,5.055,2.277
				s3.579-0.716,5.448-2.1c1.868-1.384,3.051-2.809,3.548-4.304c0.496-1.495,0.342-2.822-0.479-3.983
				c-0.709-1.002-1.715-1.464-3.015-1.369c-0.895,0.065-2.75,0.677-5.549,1.869c-4.049,1.725-6.884,2.802-8.48,3.129
				c-1.597,0.328-3.087,0.276-4.476-0.167c-1.388-0.442-2.564-1.26-3.523-2.465c-1.65-2.074-2.114-4.466-1.341-7.175
				s2.782-5.312,6.023-7.722c2.041-1.518,4.049-2.556,6.003-3.117s3.677-0.65,5.161-0.285s2.99,1.326,4.521,2.874
				c-1.652,1.482-2.471,2.229-4.102,3.736c-2.381-2.467-5.364-2.438-8.88,0.175c-1.998,1.484-3.252,2.909-3.765,4.244
				c-0.513,1.335-0.407,2.463,0.305,3.385c0.7,0.907,1.716,1.271,3.024,1.09c0.781-0.108,2.801-0.861,6.002-2.191
				c4.393-1.825,7.355-2.817,8.844-3.042c1.488-0.224,2.87-0.065,4.14,0.47s2.353,1.469,3.257,2.79
				c1.676,2.449,2.057,5.092,1.207,7.929c-0.851,2.838-2.877,5.402-6.095,7.79C97.317,270.261,91.859,270.412,86.727,265.984z"/>
			<path stroke="#000000" d="M126.039,243.935c1.216,1.436,1.823,2.154,3.033,3.594c-1.073,1.019-2.098,1.838-3.083,2.455
				c-1.548,0.969-2.948,1.509-4.21,1.615c-1.263,0.106-2.353-0.154-3.268-0.79c-0.916-0.636-2.217-2.241-3.903-4.819
				c-3.911-5.98-5.866-8.97-9.776-14.95c-1.39,0.911-2.085,1.371-3.467,2.299c-0.911-1.36-1.366-2.041-2.277-3.401
				c1.397-0.938,2.099-1.402,3.504-2.323c-1.683-2.574-2.526-3.862-4.209-6.437c1.26-2.336,1.903-3.5,3.21-5.825
				c2.32,3.667,3.479,5.5,5.799,9.167c1.954-1.239,2.933-1.85,4.901-3.056c0.854,1.396,1.282,2.095,2.136,3.491
				c-1.947,1.193-2.917,1.798-4.85,3.023c3.883,6.137,5.825,9.207,9.708,15.344c0.896,1.417,1.609,2.247,2.134,2.489
				c0.758,0.35,1.669,0.19,2.731-0.47C124.663,245.023,125.291,244.554,126.039,243.935z"/>
			<path stroke="#000000" d="M150.355,235.618c-0.838-1.621-1.256-2.431-2.094-4.051c-0.272,2.116-0.918,3.938-1.941,5.478
				c-1.023,1.539-2.424,2.795-4.216,3.787c-2.121,1.174-4.187,1.729-6.225,1.656s-3.733-0.664-5.081-1.792
				c-1.348-1.127-2.757-2.918-4.219-5.383c-3.925-6.619-5.887-9.929-9.812-16.548c1.955-1.161,2.934-1.732,4.902-2.862
				c3.425,5.977,5.137,8.964,8.562,14.941c1.589,2.773,2.828,4.528,3.71,5.271s1.948,1.132,3.195,1.179s2.461-0.258,3.651-0.912
				c2.213-1.217,3.641-2.938,4.284-5.194c0.551-1.934-0.061-4.643-1.857-8.103c-3.066-5.906-4.599-8.859-7.665-14.766
				c2.017-1.048,3.028-1.562,5.057-2.578c4.633,9.255,9.262,18.512,13.895,27.768C152.838,234.341,152.008,234.762,150.355,235.618z
				"/>
			<path stroke="#000000" d="M179.934,222.032c-0.587-1.453-0.881-2.178-1.468-3.631c-0.311,1.745-0.994,3.258-2.048,4.551
				c-1.054,1.294-2.356,2.272-3.917,2.946c-3.293,1.422-6.694,1.406-10.301-0.046c-3.606-1.453-6.554-4.459-8.774-9.102
				c-1.521-3.182-2.261-6.147-2.178-8.902s0.841-5.122,2.274-7.081c1.433-1.959,3.35-3.468,5.729-4.499
				c1.702-0.738,3.436-1.063,5.185-0.98c1.749,0.084,3.355,0.559,4.814,1.418c-2.312-5.701-3.468-8.552-5.78-14.252
				c2.167-0.877,3.253-1.308,5.43-2.151c5.171,13.319,10.343,26.638,15.515,39.957C182.618,220.957,181.722,221.31,179.934,222.032z
				 M158.45,214.427c1.677,3.649,3.709,5.994,6.064,7.07c2.354,1.077,4.541,1.174,6.599,0.287c2.036-0.877,3.441-2.479,4.244-4.833
				c0.802-2.354,0.516-5.282-0.9-8.789c-1.627-4.03-3.602-6.658-5.954-7.851c-2.353-1.192-4.766-1.268-7.193-0.219
				c-2.15,0.929-3.61,2.63-4.348,5.069C156.223,207.603,156.732,210.691,158.45,214.427z"/>
			<path stroke="#000000" d="M179.459,182.811c-0.824-2.276-1.235-3.415-2.059-5.691c2.162-0.781,3.245-1.163,5.416-1.912
				c0.791,2.288,1.186,3.432,1.976,5.72C182.655,181.666,181.588,182.042,179.459,182.811z M191.988,217.423
				c-3.523-9.731-7.046-19.462-10.568-29.194c2.097-0.757,3.148-1.128,5.254-1.854c3.378,9.783,6.759,19.564,10.139,29.346
				C194.878,216.387,193.915,216.727,191.988,217.423z"/>
			<path stroke="#000000" d="M197.599,199.083c-1.665-5.095-1.579-9.385,0.356-12.851c1.937-3.466,5.09-5.852,9.385-7.061
				c4.222-1.188,8.132-0.793,11.625,1.144c3.492,1.938,5.795,5.445,6.993,10.449c1.297,5.421,0.928,9.769-1.006,13.065
				c-1.934,3.297-4.838,5.459-8.791,6.572c-3.886,1.094-7.488,0.756-10.907-1.043C201.835,207.561,199.257,204.161,197.599,199.083z
				 M202.815,197.413c1.191,3.839,2.935,6.427,5.195,7.794c2.26,1.368,4.615,1.696,7.11,0.995c2.338-0.657,4.083-2.151,5.275-4.511
				c1.191-2.359,1.318-5.463,0.334-9.32c-0.989-3.876-2.61-6.544-4.901-7.971s-4.793-1.771-7.457-1.02
				c-2.519,0.71-4.388,2.29-5.572,4.705C201.615,190.499,201.636,193.61,202.815,197.413z"/>
			<path stroke="#000000" d="M231.53,196.194c1.963-0.78,2.948-1.163,4.926-1.915c0.755,2.082,1.905,3.504,3.445,4.279
				s3.395,0.949,5.583,0.537c2.188-0.411,3.802-1.165,4.848-2.285c1.046-1.12,1.459-2.378,1.223-3.781
				c-0.204-1.21-0.888-2.066-2.057-2.556c-0.804-0.336-2.671-0.606-5.588-0.778c-4.221-0.249-7.114-0.547-8.63-0.964
				c-1.517-0.417-2.784-1.126-3.804-2.14c-1.02-1.013-1.701-2.268-2.039-3.771c-0.581-2.586-0.01-4.925,1.766-7
				s4.58-3.508,8.379-4.229c2.393-0.454,4.563-0.495,6.492-0.136c1.929,0.359,3.464,1.036,4.604,2.017s2.057,2.505,2.751,4.566
				c-2.049,0.603-3.071,0.911-5.109,1.542c-1.054-3.26-3.66-4.548-7.782-3.768c-2.342,0.443-4.011,1.162-5.001,2.126
				c-0.99,0.965-1.36,2.019-1.121,3.159c0.235,1.121,0.965,1.898,2.172,2.317c0.721,0.25,2.778,0.476,6.101,0.702
				c4.559,0.311,7.546,0.726,8.933,1.181c1.386,0.455,2.521,1.207,3.405,2.245s1.444,2.35,1.687,3.932
				c0.449,2.933-0.308,5.472-2.217,7.64c-1.909,2.169-4.727,3.574-8.498,4.286C238.934,204.736,234.16,202.433,231.53,196.194z"/>
			<path stroke="#000000" d="M273.087,198.671c3.953-14.882,8.337-29.521,13.202-44.131c2.624-0.165,3.938-0.236,6.563-0.357
				c6.788,13.976,13.069,28.042,18.929,42.432c-2.507-0.005-3.76,0.003-6.266,0.042c-2.008-5.16-3.047-7.733-5.197-12.863
				c-7.218,0.213-10.826,0.409-18.029,0.979c-1.449,5.322-2.139,7.987-3.453,13.322
				C276.536,198.308,275.385,198.422,273.087,198.671z M283.601,180.041c5.908-0.44,8.867-0.602,14.786-0.806
				c-1.97-4.682-2.984-7.016-5.07-11.671c-1.612-3.573-3.658-8.713-3.658-8.713c-0.089,0.008-1.116,5.549-2.008,8.317
				C285.963,172.309,285.154,174.883,283.601,180.041z"/>
			<path stroke="#000000" d="M334.999,197.426c0.125-1.82,0.187-2.73,0.312-4.55c-1.305,1.669-2.766,2.894-4.399,3.68
				s-3.438,1.135-5.429,1.053c-2.357-0.097-4.352-0.697-6.003-1.818c-1.653-1.121-2.759-2.507-3.305-4.17s-0.81-3.926-0.775-6.791
				c0.092-7.693,0.134-11.539,0.226-19.232c2.203,0.026,3.308,0.047,5.51,0.104c-0.182,6.884-0.274,10.325-0.456,17.209
				c-0.084,3.195,0.057,5.34,0.413,6.431c0.356,1.091,1.041,1.978,2.053,2.665c1.014,0.688,2.176,1.059,3.497,1.116
				c2.456,0.107,4.523-0.627,6.204-2.223c1.441-1.368,2.307-4,2.566-7.89c0.444-6.638,0.665-9.958,1.109-16.596
				c2.215,0.147,3.321,0.229,5.534,0.408c-0.841,10.313-1.685,20.627-2.524,30.94C337.719,197.617,336.813,197.55,334.999,197.426z"
				/>
			<path stroke="#000000" d="M366.762,201.046c0.249-1.547,0.377-2.321,0.626-3.868c-1.158,1.334-2.514,2.279-4.065,2.845
				c-1.551,0.565-3.149,0.735-4.809,0.509c-3.5-0.477-6.349-2.246-8.632-5.349s-3.221-7.197-2.713-12.317
				c0.348-3.509,1.241-6.43,2.714-8.745c1.474-2.315,3.322-3.952,5.526-4.891c2.204-0.939,4.584-1.243,7.114-0.901
				c1.812,0.245,3.442,0.858,4.874,1.83c1.432,0.972,2.539,2.206,3.329,3.692c0.972-6.073,1.461-9.111,2.433-15.184
				c2.279,0.363,3.418,0.553,5.693,0.949c-2.466,14.071-4.928,28.142-7.396,42.213C369.58,201.503,368.642,201.347,366.762,201.046z
				 M352.568,183.469c-0.456,3.989,0.051,7.044,1.479,9.18s3.214,3.343,5.4,3.644c2.165,0.297,4.171-0.353,6.054-1.955
				c1.884-1.603,3.146-4.258,3.749-7.991c0.692-4.29,0.374-7.557-1-9.79c-1.373-2.23-3.372-3.539-5.951-3.89
				c-2.285-0.312-4.383,0.392-6.249,2.101C354.186,176.475,353.035,179.384,352.568,183.469z"/>
			<path stroke="#000000" d="M386.514,167.199c0.472-2.374,0.709-3.562,1.181-5.936c2.236,0.442,3.352,0.672,5.582,1.147
				c-0.507,2.367-0.759,3.55-1.266,5.917C389.814,167.86,388.716,167.634,386.514,167.199z M379.333,203.296
				c2.017-10.15,4.038-20.299,6.055-30.449c2.169,0.429,3.251,0.652,5.415,1.113c-2.164,10.12-4.331,20.239-6.496,30.358
				C382.319,203.895,381.325,203.69,379.333,203.296z"/>
			<path stroke="#000000" d="M393.549,190.468c1.209-5.221,3.495-8.852,6.937-10.825c3.439-1.972,7.362-2.395,11.664-1.218
				c4.229,1.157,7.384,3.512,9.38,6.974c1.996,3.462,2.159,7.653,0.598,12.556c-1.692,5.312-4.263,8.844-7.631,10.668
				c-3.368,1.825-6.979,2.179-10.938,1.096c-3.892-1.064-6.793-3.208-8.782-6.508S392.344,195.671,393.549,190.468z
				 M398.859,191.719c-0.966,3.902-0.81,7.018,0.413,9.352c1.225,2.335,3.068,3.828,5.566,4.512c2.341,0.641,4.61,0.261,6.853-1.144
				c2.243-1.406,3.964-4,5.115-7.81c1.157-3.83,1.146-6.951-0.081-9.353c-1.227-2.403-3.2-3.989-5.867-4.718
				c-2.524-0.689-4.938-0.298-7.195,1.16C401.404,185.178,399.815,187.855,398.859,191.719z"/>
			<path stroke="#000000" d="M419.258,226.208c4.579-13.564,9.162-27.127,13.743-40.691c1.952,0.658,2.926,0.994,4.87,1.678
				c-0.537,1.522-0.804,2.283-1.341,3.805c1.735-1.166,3.458-1.834,5.158-2.002c1.698-0.169,3.491,0.099,5.36,0.811
				c2.438,0.927,4.417,2.347,5.917,4.231c1.5,1.885,2.362,4.197,2.588,6.921c0.226,2.722-0.346,5.654-1.678,8.794
				c-2.063,4.863-4.914,8.07-8.469,9.696c-3.557,1.627-6.941,1.813-10.262,0.553c-1.476-0.56-2.737-1.391-3.792-2.502
				c-1.055-1.111-1.847-2.419-2.38-3.931c-2.019,5.699-3.028,8.549-5.047,14.249C422.063,227.162,421.13,226.839,419.258,226.208z
				 M432.583,201.98c-1.336,3.787-1.535,6.847-0.648,9.185s2.388,3.899,4.537,4.713c2.059,0.779,4.209,0.564,6.498-0.645
				s4.227-3.701,5.774-7.511c1.526-3.755,1.877-6.859,1.005-9.302c-0.873-2.444-2.485-4.122-4.803-4.999
				c-2.082-0.788-4.354-0.507-6.768,0.851C435.765,195.63,433.912,198.212,432.583,201.98z"/>
			<path stroke="#000000" d="M453.428,226.774c5.815-13.052,11.625-26.105,17.438-39.158c2.113,0.94,3.164,1.418,5.266,2.391
				c-2.585,5.583-3.876,8.375-6.461,13.958c1.787-0.74,3.594-1.074,5.404-0.998c1.813,0.077,3.635,0.563,5.445,1.46
				c3.188,1.58,5.297,3.643,6.313,6.123s0.423,5.752-1.742,9.811c-3.705,6.944-5.558,10.416-9.263,17.36
				c-1.832-0.979-2.751-1.46-4.595-2.41c3.602-6.999,5.403-10.497,9.005-17.496c1.231-2.392,1.571-4.389,1.001-5.991
				c-0.57-1.601-1.834-2.896-3.783-3.854c-2.178-1.071-4.372-1.286-6.544-0.65c-2.17,0.636-4.048,2.703-5.652,6.169
				c-2.854,6.166-4.283,9.25-7.138,15.416C456.25,228.038,455.311,227.612,453.428,226.774z"/>
			<path stroke="#000000" d="M488.612,227.008c2.604-4.685,5.828-7.529,9.736-8.438c3.908-0.909,7.873-0.177,11.777,2.213
				c3.839,2.35,6.298,5.548,7.322,9.479c1.024,3.931,0.054,8.032-2.81,12.307c-3.102,4.632-6.587,7.284-10.392,8.054
				c-3.807,0.771-7.453,0.052-11.045-2.146c-3.531-2.162-5.797-5.073-6.85-8.829C485.3,235.891,486.018,231.677,488.612,227.008z
				 M493.48,229.748c-2.006,3.484-2.706,6.53-2.138,9.137c0.567,2.608,1.969,4.583,4.237,5.974c2.124,1.302,4.457,1.6,7.043,0.9
				c2.584-0.699,4.976-2.699,7.14-6.041c2.175-3.358,3.009-6.375,2.453-9.056s-2.056-4.787-4.479-6.269
				c-2.289-1.4-4.767-1.725-7.378-0.972C497.748,224.176,495.467,226.298,493.48,229.748z"/>
			<path stroke="#000000" d="M510.964,259.256c5.913-8.495,11.823-16.992,17.737-25.485c1.705,1.189,2.554,1.791,4.245,3.006
				c-1.021,1.426-1.533,2.14-2.555,3.565c1.997-0.665,3.979-0.802,5.938-0.407c1.958,0.396,3.89,1.307,5.768,2.739
				c1.46,1.113,2.64,2.369,3.536,3.753c0.898,1.386,1.448,2.72,1.653,3.995c0.204,1.272,0.053,2.597-0.453,3.965
				c-0.506,1.37-1.667,3.169-3.47,5.395c-4.807,5.933-7.208,8.899-12.015,14.832c-1.658-1.347-2.493-2.013-4.167-3.331
				c4.67-5.947,7.005-8.92,11.676-14.868c1.41-1.795,2.237-3.268,2.48-4.416c0.243-1.146,0.109-2.289-0.412-3.42
				s-1.363-2.139-2.521-3.016c-2.192-1.661-4.417-2.341-6.631-2.051c-2.216,0.291-4.412,1.973-6.598,5.015
				c-3.962,5.514-5.943,8.27-9.905,13.784C513.556,261.074,512.694,260.463,510.964,259.256z"/>
			<path stroke="#000000" d="M560.832,287.386c1.479,1.8,2.211,2.705,3.663,4.53c-3.022,1.666-6.002,2.229-8.947,1.726
				c-2.943-0.503-5.709-1.973-8.357-4.407c-3.334-3.065-5.159-6.489-5.505-10.404s1.098-7.858,4.422-11.811
				c3.449-4.101,7.215-6.284,11.352-6.433c4.135-0.148,8.005,1.376,11.494,4.579c3.328,3.056,5.126,6.692,5.352,10.773
				s-1.56,7.968-5.26,11.681c-0.406,0.387-0.61,0.58-1.017,0.967c-7.114-7.089-10.765-10.485-18.23-16.982
				c-2.115,2.784-3.054,5.452-2.85,8.001c0.204,2.547,1.26,4.687,3.193,6.464C553.171,288.854,556.698,289.3,560.832,287.386z
				 M552.892,268.567c5.645,4.921,8.423,7.465,13.871,12.722c1.68-2.115,2.515-4.101,2.496-5.949
				c-0.027-2.688-1.118-5.044-3.261-7.011c-1.929-1.77-4.129-2.664-6.566-2.675C556.997,265.643,554.817,266.627,552.892,268.567z"
				/>
		</g>
	</g>
</g>
</svg>
