<?xml version="1.0" encoding="utf-8"?>
<!-- Generator: Adobe Illustrator 16.0.0, SVG Export Plug-In . SVG Version: 6.00 Build 0)  -->
<!DOCTYPE svg PUBLIC "-//W3C//DTD SVG 1.1//EN" "http://www.w3.org/Graphics/SVG/1.1/DTD/svg11.dtd">
<svg version="1.1" xmlns="http://www.w3.org/2000/svg" xmlns:xlink="http://www.w3.org/1999/xlink" x="0px" y="0px" width="800px"
	 height="800px" viewBox="0 0 800 800" enable-background="new 0 0 800 800" xml:space="preserve">
<g id="Capa_2">
	<rect x="61" y="158" fill="#00697F" width="75" height="9"/>
	<rect x="264" y="159" fill="#00697F" width="75" height="9"/>
	<rect x="61" y="234" fill="#00697F" width="75" height="9"/>
	<rect x="264" y="234" fill="#00697F" width="75" height="9"/>
	<rect x="265" y="302" fill="#00697F" width="75" height="9"/>
	<rect x="263" y="372" fill="#00697F" width="75" height="9"/>
	<rect x="62" y="521" fill="#E82D37" width="75" height="9"/>
	<rect x="61" y="589" fill="#C83139" width="75" height="9"/>
	<rect x="265" y="589" fill="#C83139" width="75" height="9"/>
	<rect x="470" y="376" fill="#00697F" width="75" height="9"/>
	<rect x="470" y="447" fill="#E82D37" width="75" height="9"/>
	<linearGradient id="SVGID_1_" gradientUnits="userSpaceOnUse" x1="470" y1="521" x2="546" y2="521">
		<stop  offset="0" style="stop-color:#00697F"/>
		<stop  offset="0.9512" style="stop-color:#C83139"/>
	</linearGradient>
	<rect x="470.5" y="516.5" fill="#E82D37" stroke="url(#SVGID_1_)" stroke-miterlimit="10" width="75" height="9"/>
	<rect x="470" y="589" fill="#E82D37" width="75" height="9"/>
	<rect x="674" y="158" fill="#00697F" width="75" height="9"/>
	<rect x="674" y="233" fill="#00697F" width="75" height="9"/>
	<rect x="674" y="302" fill="#00697F" width="75" height="9"/>
	<rect x="673" y="590" fill="#E82D37" width="75" height="9"/>
	<linearGradient id="SVGID_2_" gradientUnits="userSpaceOnUse" x1="97.5" y1="300" x2="97.5" y2="458.0005">
		<stop  offset="0" style="stop-color:#00697F"/>
		<stop  offset="0.9512" style="stop-color:#C83139"/>
	</linearGradient>
	<rect x="55.5" y="304.5" fill="none" stroke="url(#SVGID_2_)" stroke-width="9" stroke-miterlimit="10" width="84" height="149"/>
	<rect x="261.5" y="411.5" fill="none" stroke="#C83139" stroke-width="9" stroke-miterlimit="10" width="84" height="149"/>
	<rect x="466.5" y="164.5" fill="none" stroke="#00697F" stroke-width="9" stroke-miterlimit="10" width="84" height="149"/>
	<linearGradient id="SVGID_3_" gradientUnits="userSpaceOnUse" x1="711.5" y1="367" x2="711.5" y2="525.0005">
		<stop  offset="0" style="stop-color:#00697F"/>
		<stop  offset="0.9512" style="stop-color:#C83139"/>
	</linearGradient>
	<rect x="669.5" y="371.5" fill="none" stroke="url(#SVGID_3_)" stroke-width="9" stroke-miterlimit="10" width="84" height="149"/>
</g>
<g id="Capa_4">
</g>
<g id="Capa_3">
	<linearGradient id="SVGID_4_" gradientUnits="userSpaceOnUse" x1="99" y1="126" x2="99" y2="636.0005">
		<stop  offset="0" style="stop-color:#00697F"/>
		<stop  offset="0.9512" style="stop-color:#C83139"/>
	</linearGradient>
	<rect x="86" y="126" fill="url(#SVGID_4_)" width="26" height="510"/>
	<linearGradient id="SVGID_5_" gradientUnits="userSpaceOnUse" x1="303" y1="124" x2="303" y2="634.0005">
		<stop  offset="0" style="stop-color:#00697F"/>
		<stop  offset="0.9512" style="stop-color:#C83139"/>
	</linearGradient>
	<rect x="290" y="124" fill="url(#SVGID_5_)" width="26" height="510"/>
	<linearGradient id="SVGID_6_" gradientUnits="userSpaceOnUse" x1="507" y1="125" x2="507" y2="635.0005">
		<stop  offset="0" style="stop-color:#00697F"/>
		<stop  offset="0.9512" style="stop-color:#C83139"/>
	</linearGradient>
	<rect x="494" y="125" fill="url(#SVGID_6_)" width="26" height="510"/>
	<linearGradient id="SVGID_7_" gradientUnits="userSpaceOnUse" x1="711" y1="125" x2="711" y2="635.0005">
		<stop  offset="0" style="stop-color:#00697F"/>
		<stop  offset="0.9512" style="stop-color:#C83139"/>
	</linearGradient>
	<rect x="698" y="125" fill="url(#SVGID_7_)" width="26" height="510"/>
</g>
<g id="Capa_5">
	<linearGradient id="SVGID_8_" gradientUnits="userSpaceOnUse" x1="100.1353" y1="387.5" x2="100.1353" y2="387.5">
		<stop  offset="0" style="stop-color:#00697F"/>
		<stop  offset="0.9512" style="stop-color:#C83139"/>
	</linearGradient>
	<linearGradient id="SVGID_9_" gradientUnits="userSpaceOnUse" x1="75.1353" y1="387.5" x2="125.1353" y2="387.5">
		<stop  offset="0" style="stop-color:#00697F"/>
		<stop  offset="0.9512" style="stop-color:#C83139"/>
	</linearGradient>
	
		<rect x="75.135" y="387.5" fill="url(#SVGID_8_)" stroke="url(#SVGID_9_)" stroke-width="11" stroke-miterlimit="10" width="50" height="0"/>
	<linearGradient id="SVGID_10_" gradientUnits="userSpaceOnUse" x1="484.5947" y1="239.5" x2="533.2432" y2="239.5">
		<stop  offset="0" style="stop-color:#00697F"/>
		<stop  offset="0.9512" style="stop-color:#C83139"/>
	</linearGradient>
	
		<rect x="484.595" y="239.5" fill="url(#SVGID_10_)" stroke="#00697F" stroke-width="7" stroke-miterlimit="10" width="48.648" height="0"/>
	<rect x="278" y="490" fill="#E82D37" width="46" height="7"/>
	<linearGradient id="SVGID_11_" gradientUnits="userSpaceOnUse" x1="689" y1="450.5" x2="733" y2="450.5">
		<stop  offset="0" style="stop-color:#00697F"/>
		<stop  offset="0.9512" style="stop-color:#C83139"/>
	</linearGradient>
	<linearGradient id="SVGID_12_" gradientUnits="userSpaceOnUse" x1="686" y1="450.5" x2="736" y2="450.5">
		<stop  offset="0" style="stop-color:#00697F"/>
		<stop  offset="0.9512" style="stop-color:#C83139"/>
	</linearGradient>
	
		<rect x="689" y="448" fill="url(#SVGID_11_)" stroke="url(#SVGID_12_)" stroke-width="6" stroke-miterlimit="10" width="44" height="5"/>
</g>
</svg>
