<?xml version="1.0" encoding="utf-8"?>
<!-- Generator: Adobe Illustrator 16.0.0, SVG Export Plug-In . SVG Version: 6.00 Build 0)  -->
<!DOCTYPE svg PUBLIC "-//W3C//DTD SVG 1.1//EN" "http://www.w3.org/Graphics/SVG/1.1/DTD/svg11.dtd">
<svg version="1.1" xmlns="http://www.w3.org/2000/svg" xmlns:xlink="http://www.w3.org/1999/xlink" x="0px" y="0px" width="800px"
	 height="800px" viewBox="0 0 800 800" enable-background="new 0 0 800 800" xml:space="preserve">
<g id="Capa_3" display="none">
	<path display="inline" fill="#00697F" d="M440,202.922V259h20v-34.411C460,224.589,453,204.622,440,202.922z"/>
	<path display="inline" fill="#00697F" d="M404,190.333V259h24.723l-1.648-52.645C427.074,206.355,425,190.715,404,190.333z"/>
	<path display="inline" fill="#00697F" d="M391,190.333V259h-24.443l1.509-52.645C368.065,206.355,370,190.715,391,190.333z"/>
	<path display="inline" fill="#00697F" d="M356,202.922V259h-20v-34.411C336,224.589,344,204.622,356,202.922z"/>
	<rect x="314" y="270" display="inline" fill="#00697F" width="164" height="19"/>
	<rect x="314" y="312" display="inline" fill="#00697F" width="164" height="18"/>
	<rect x="314" y="353" display="inline" fill="#6E4B5B" width="164" height="16"/>
	<rect x="316" y="390" display="inline" fill="#A03A47" width="158" height="20"/>
	<linearGradient id="SVGID_1_" gradientUnits="userSpaceOnUse" x1="396.3823" y1="516.0088" x2="396.3823" y2="332.9146">
		<stop  offset="0" style="stop-color:#E82D37"/>
		<stop  offset="1" style="stop-color:#00697F"/>
	</linearGradient>
	<path display="inline" fill="none" stroke="url(#SVGID_1_)" stroke-width="12" stroke-miterlimit="10" d="M283.585,333.5
		c0,0-17.464,177.935,112.415,176.5c129.878-1.434,113.274-176.5,113.274-176.5"/>
	<path display="inline" fill="#E82D37" d="M337.191,421.531l-0.208,27.358c0,0,6.881,15.775,19.871,17.211l0.336-44.418"/>
	<path display="inline" fill="#E82D37" d="M368.467,421.9l1.333,41.529c0,0,1.98,12.397,22.978,12.857l0.412-54.332"/>
	<path display="inline" fill="#E82D37" d="M430.631,422.371l-1.823,41.506c0,0-2.027,12.366-23.03,12.509l0.412-54.331"/>
	<path display="inline" fill="#E82D37" d="M461.188,422.471l-0.208,27.358c0,0-8.118,15.661-20.128,16.908l0.336-44.419"/>
	<rect x="391" y="510" display="inline" fill="#E82D37" width="9" height="78"/>
	<rect x="307" y="572" display="inline" fill="#E82D37" width="168" height="32"/>
	<path display="inline" fill="#00697F" d="M164,254.609V296h16v-25.625C180,270.375,175,255.846,164,254.609z"/>
	<path display="inline" fill="#00697F" d="M136,245.449V296h19.294l-1.095-38.6C154.199,257.4,152,245.727,136,245.449z"/>
	<path display="inline" fill="#00697F" d="M125,245.449V296h-19.334l1.115-38.6C106.78,257.4,108,245.727,125,245.449z"/>
	<path display="inline" fill="#00697F" d="M97,254.609V296H81v-25.625C81,270.375,88,255.846,97,254.609z"/>
	<rect x="64" y="303" display="inline" fill="#00697F" width="131" height="14"/>
	<rect x="64" y="335" display="inline" fill="#00697F" width="131" height="12"/>
	<rect x="64" y="364" display="inline" fill="#6E4B5B" width="131" height="11"/>
	<rect x="65" y="391" display="inline" fill="#A03A47" width="126" height="14"/>
	<linearGradient id="SVGID_2_" gradientUnits="userSpaceOnUse" x1="129.4761" y1="484.0605" x2="129.4761" y2="348.9829">
		<stop  offset="0" style="stop-color:#E82D37"/>
		<stop  offset="1" style="stop-color:#00697F"/>
	</linearGradient>
	<path display="inline" fill="none" stroke="url(#SVGID_2_)" stroke-width="12" stroke-miterlimit="10" d="M39.427,349.625
		c0,0-13.942,129.475,89.744,128.43c103.685-1.042,90.43-128.43,90.43-128.43"/>
	<path display="inline" fill="#E82D37" d="M82.222,413.682l-0.166,19.907c0,0,5.493,11.479,15.863,12.522l0.268-32.32"/>
	<path display="inline" fill="#E82D37" d="M107.19,413.949l1.064,30.22c0,0,1.581,9.021,18.344,9.355l0.329-39.534"/>
	<path display="inline" fill="#E82D37" d="M156.817,414.292l-1.456,30.202c0,0-1.618,8.999-18.386,9.103l0.329-39.534"/>
	<path display="inline" fill="#E82D37" d="M181.212,414.364l-0.167,19.908c0,0-6.481,11.396-16.068,12.303l0.268-32.322"/>
	<rect x="125" y="478" display="inline" fill="#E82D37" width="7" height="57"/>
	<rect x="64" y="522" display="inline" fill="#E82D37" width="134" height="23"/>
	<path display="inline" fill="#00697F" d="M700,259.609V301h16v-25.625C716,275.375,711,260.846,700,259.609z"/>
	<path display="inline" fill="#00697F" d="M672,250.449V301h19.294l-1.095-38.6C690.199,262.4,688,250.727,672,250.449z"/>
	<path display="inline" fill="#00697F" d="M661,250.449V301h-19.334l1.114-38.6C642.78,262.4,644,250.727,661,250.449z"/>
	<path display="inline" fill="#00697F" d="M633,259.609V301h-16v-25.625C617,275.375,624,260.846,633,259.609z"/>
	<rect x="600" y="308" display="inline" fill="#00697F" width="131" height="14"/>
	<rect x="600" y="340" display="inline" fill="#00697F" width="131" height="12"/>
	<rect x="600" y="369" display="inline" fill="#6E4B5B" width="131" height="11"/>
	<rect x="601" y="396" display="inline" fill="#A03A47" width="126" height="14"/>
	<linearGradient id="SVGID_3_" gradientUnits="userSpaceOnUse" x1="665.4766" y1="489.0605" x2="665.4766" y2="353.9829">
		<stop  offset="0" style="stop-color:#E82D37"/>
		<stop  offset="1" style="stop-color:#00697F"/>
	</linearGradient>
	<path display="inline" fill="none" stroke="url(#SVGID_3_)" stroke-width="12" stroke-miterlimit="10" d="M575.428,354.625
		c0,0-13.942,129.475,89.743,128.43c103.685-1.042,90.43-128.43,90.43-128.43"/>
	<path display="inline" fill="#E82D37" d="M618.223,418.682l-0.166,19.907c0,0,5.493,11.479,15.863,12.522l0.268-32.32"/>
	<path display="inline" fill="#E82D37" d="M643.19,418.949l1.064,30.22c0,0,1.581,9.021,18.344,9.355l0.329-39.534"/>
	<path display="inline" fill="#E82D37" d="M692.817,419.292l-1.456,30.202c0,0-1.617,8.999-18.385,9.103l0.328-39.534"/>
	<path display="inline" fill="#E82D37" d="M717.212,419.364l-0.167,19.908c0,0-6.48,11.396-16.068,12.303l0.269-32.322"/>
	<rect x="661" y="483" display="inline" fill="#E82D37" width="7" height="57"/>
	<rect x="600" y="527" display="inline" fill="#E82D37" width="134" height="23"/>
</g>
<g id="Capa_2" display="none">
	
		<image display="inline" overflow="visible" width="300" height="500" xlink:href="micro.png"  transform="matrix(2.89 0 0 2.98 -33.5005 -650.0005)">
	</image>
</g>
<g id="Capa_4">
	<path fill="none" stroke="#00697F" stroke-width="22" stroke-miterlimit="10" d="M460.853,211.129
		c0-60.691,54.368-114.621,119.083-114.621c64.716,0,117.179,49.2,117.179,109.892c0,60.691-55.319,114.695-120.036,114.695"/>
	<path fill="none" stroke="#A03A47" stroke-width="24" stroke-miterlimit="10" d="M212.524,566.693c0,0-81.609,40.239-92.088,60.056
		s6.668,62.452-3.811,75.063c-10.479,12.61-31.121,28.824-31.121,28.824"/>
	
		<ellipse fill="none" stroke="#A03A47" stroke-width="24" stroke-miterlimit="10" cx="232.849" cy="547.559" rx="26.041" ry="26.797"/>
	<linearGradient id="SVGID_4_" gradientUnits="userSpaceOnUse" x1="372.5405" y1="579.04" x2="372.5405" y2="238.3521">
		<stop  offset="0" style="stop-color:#A03A47"/>
		<stop  offset="1" style="stop-color:#00697F"/>
	</linearGradient>
	<polygon fill="none" stroke="url(#SVGID_4_)" stroke-width="24" stroke-miterlimit="10" points="422.109,255.636 212.524,493.435 
		288.737,563.092 531.35,359.527 	"/>
	<linearGradient id="SVGID_5_" gradientUnits="userSpaceOnUse" x1="463.4043" y1="346.7964" x2="532.8112" y2="226.5802">
		<stop  offset="0" style="stop-color:#A03A47"/>
		<stop  offset="0.0583" style="stop-color:#7C4554"/>
		<stop  offset="0.1237" style="stop-color:#5B4E5F"/>
		<stop  offset="0.1969" style="stop-color:#3E5769"/>
		<stop  offset="0.2785" style="stop-color:#275D71"/>
		<stop  offset="0.3721" style="stop-color:#166377"/>
		<stop  offset="0.4852" style="stop-color:#09667C"/>
		<stop  offset="0.6377" style="stop-color:#02687E"/>
		<stop  offset="1" style="stop-color:#00697F"/>
	</linearGradient>
	<polygon fill="none" stroke="url(#SVGID_5_)" stroke-width="24" stroke-miterlimit="10" points="397.976,231.616 559.292,385.345 
		597.398,343.309 437.353,188.38 	"/>
	<linearGradient id="SVGID_6_" gradientUnits="userSpaceOnUse" x1="177.3789" y1="374.5308" x2="177.3789" y2="162.2993">
		<stop  offset="0" style="stop-color:#A03A47"/>
		<stop  offset="1" style="stop-color:#00697F"/>
	</linearGradient>
	<path fill="none" stroke="url(#SVGID_6_)" stroke-width="24" stroke-miterlimit="10" d="M118.848,173.072l37.631,18.465
		l-4.049,129.033c0,0-5.954,41.96,39.773,41.96c47.633,0,52.069-71.898-3.169-73.172c-26.039-0.601-36.299,21.472-36.299,21.472"/>
	<linearGradient id="SVGID_7_" gradientUnits="userSpaceOnUse" x1="580.3242" y1="772.6611" x2="580.3242" y2="505.3027">
		<stop  offset="0" style="stop-color:#A03A47"/>
		<stop  offset="1" style="stop-color:#00697F"/>
	</linearGradient>
	<path fill="none" stroke="url(#SVGID_7_)" stroke-width="24" stroke-miterlimit="10" d="M621.444,708.961
		c0,0,10.26-22.071,36.297-21.471c55.24,1.275,50.805,73.171,3.171,73.171c-45.727,0-39.773-41.96-39.773-41.96l3.57-156.506
		l-158.141-41.435l-3.571,156.505c0,0-5.954,41.961,39.774,41.961c47.633,0,52.068-71.896-3.171-73.172
		c-26.038-0.6-36.299,21.472-36.299,21.472"/>
</g>
<g id="Capa_5">
	<ellipse fill="#00697F" cx="497.792" cy="196.938" rx="17.208" ry="17.865"/>
	<ellipse fill="#00697F" cx="533.792" cy="178.938" rx="17.208" ry="17.865"/>
	<ellipse fill="#00697F" cx="529.792" cy="225.938" rx="17.208" ry="17.865"/>
	<ellipse fill="#00697F" cx="563.792" cy="255.938" rx="17.208" ry="17.865"/>
	<ellipse fill="#00697F" cx="597.792" cy="285.938" rx="17.208" ry="17.865"/>
	<ellipse fill="#00697F" cx="570.792" cy="210.938" rx="17.208" ry="17.865"/>
	<ellipse fill="#00697F" cx="609.792" cy="243.938" rx="17.208" ry="17.865"/>
	<ellipse fill="#00697F" cx="643.792" cy="282.938" rx="17.208" ry="17.865"/>
	<ellipse fill="#00697F" cx="499.792" cy="148.938" rx="17.208" ry="17.865"/>
	<ellipse fill="#00697F" cx="546.792" cy="139.938" rx="17.208" ry="17.865"/>
	<ellipse fill="#00697F" cx="577.792" cy="168.938" rx="17.208" ry="17.865"/>
	<ellipse fill="#00697F" cx="611.792" cy="202.938" rx="17.208" ry="17.865"/>
	<ellipse fill="#00697F" cx="649.792" cy="239.938" rx="17.208" ry="17.865"/>
	<ellipse fill="#00697F" cx="587.792" cy="128.938" rx="17.208" ry="17.865"/>
	<ellipse fill="#00697F" cx="626.792" cy="157.938" rx="17.208" ry="17.865"/>
	<ellipse fill="#00697F" cx="656.792" cy="192.938" rx="17.208" ry="17.865"/>
</g>
</svg>
