<?xml version="1.0" encoding="utf-8"?>
<!-- Generator: Adobe Illustrator 16.0.0, SVG Export Plug-In . SVG Version: 6.00 Build 0)  -->
<!DOCTYPE svg PUBLIC "-//W3C//DTD SVG 1.1//EN" "http://www.w3.org/Graphics/SVG/1.1/DTD/svg11.dtd">
<svg version="1.1" id="Capa_3" xmlns="http://www.w3.org/2000/svg" xmlns:xlink="http://www.w3.org/1999/xlink" x="0px" y="0px"
	 width="800px" height="800px" viewBox="0 0 800 800" enable-background="new 0 0 800 800" xml:space="preserve">
<path fill="#00697F" d="M440,202.922V259h20v-34.411C460,224.589,453,204.622,440,202.922z"/>
<path fill="#00697F" d="M404,190.333V259h24.723l-1.648-52.645C427.074,206.355,425,190.715,404,190.333z"/>
<path fill="#00697F" d="M391,190.333V259h-24.443l1.509-52.645C368.065,206.355,370,190.715,391,190.333z"/>
<path fill="#00697F" d="M356,202.922V259h-20v-34.411C336,224.589,344,204.622,356,202.922z"/>
<rect x="314" y="270" fill="#00697F" width="164" height="19"/>
<rect x="314" y="312" fill="#00697F" width="164" height="18"/>
<rect x="314" y="353" fill="#6E4B5B" width="164" height="16"/>
<rect x="316" y="390" fill="#A03A47" width="158" height="20"/>
<linearGradient id="SVGID_1_" gradientUnits="userSpaceOnUse" x1="396.3823" y1="516.0088" x2="396.3823" y2="332.9146">
	<stop  offset="0" style="stop-color:#E82D37"/>
	<stop  offset="1" style="stop-color:#00697F"/>
</linearGradient>
<path fill="none" stroke="url(#SVGID_1_)" stroke-width="12" stroke-miterlimit="10" d="M283.585,333.5
	c0,0-17.464,177.935,112.415,176.5c129.878-1.434,113.274-176.5,113.274-176.5"/>
<path fill="#E82D37" d="M337.191,421.531l-0.208,27.358c0,0,6.881,15.775,19.871,17.211l0.336-44.418"/>
<path fill="#E82D37" d="M368.467,421.9l1.333,41.529c0,0,1.98,12.397,22.978,12.857l0.412-54.332"/>
<path fill="#E82D37" d="M430.631,422.371l-1.823,41.506c0,0-2.027,12.366-23.03,12.509l0.412-54.331"/>
<path fill="#E82D37" d="M461.188,422.471l-0.208,27.358c0,0-8.118,15.661-20.128,16.908l0.336-44.419"/>
<rect x="391" y="510" fill="#E82D37" width="9" height="78"/>
<rect x="307" y="572" fill="#E82D37" width="168" height="32"/>
<path fill="#00697F" d="M164,254.609V296h16v-25.625C180,270.375,175,255.846,164,254.609z"/>
<path fill="#00697F" d="M136,245.449V296h19.294l-1.095-38.6C154.199,257.4,152,245.727,136,245.449z"/>
<path fill="#00697F" d="M125,245.449V296h-19.334l1.115-38.6C106.78,257.4,108,245.727,125,245.449z"/>
<path fill="#00697F" d="M97,254.609V296H81v-25.625C81,270.375,88,255.846,97,254.609z"/>
<rect x="64" y="303" fill="#00697F" width="131" height="14"/>
<rect x="64" y="335" fill="#00697F" width="131" height="12"/>
<rect x="64" y="364" fill="#6E4B5B" width="131" height="11"/>
<rect x="65" y="391" fill="#A03A47" width="126" height="14"/>
<linearGradient id="SVGID_2_" gradientUnits="userSpaceOnUse" x1="129.4761" y1="484.0605" x2="129.4761" y2="348.9829">
	<stop  offset="0" style="stop-color:#E82D37"/>
	<stop  offset="1" style="stop-color:#00697F"/>
</linearGradient>
<path fill="none" stroke="url(#SVGID_2_)" stroke-width="12" stroke-miterlimit="10" d="M39.427,349.625
	c0,0-13.942,129.475,89.744,128.43c103.685-1.042,90.43-128.43,90.43-128.43"/>
<path fill="#E82D37" d="M82.222,413.682l-0.166,19.907c0,0,5.493,11.479,15.863,12.522l0.268-32.32"/>
<path fill="#E82D37" d="M107.19,413.949l1.064,30.22c0,0,1.581,9.021,18.344,9.355l0.329-39.534"/>
<path fill="#E82D37" d="M156.817,414.292l-1.456,30.202c0,0-1.618,8.999-18.386,9.103l0.329-39.534"/>
<path fill="#E82D37" d="M181.212,414.364l-0.167,19.908c0,0-6.481,11.396-16.068,12.303l0.268-32.322"/>
<rect x="125" y="478" fill="#E82D37" width="7" height="57"/>
<rect x="64" y="522" fill="#E82D37" width="134" height="23"/>
<path fill="#00697F" d="M700,259.609V301h16v-25.625C716,275.375,711,260.846,700,259.609z"/>
<path fill="#00697F" d="M672,250.449V301h19.294l-1.095-38.6C690.199,262.4,688,250.727,672,250.449z"/>
<path fill="#00697F" d="M661,250.449V301h-19.334l1.114-38.6C642.78,262.4,644,250.727,661,250.449z"/>
<path fill="#00697F" d="M633,259.609V301h-16v-25.625C617,275.375,624,260.846,633,259.609z"/>
<rect x="600" y="308" fill="#00697F" width="131" height="14"/>
<rect x="600" y="340" fill="#00697F" width="131" height="12"/>
<rect x="600" y="369" fill="#6E4B5B" width="131" height="11"/>
<rect x="601" y="396" fill="#A03A47" width="126" height="14"/>
<linearGradient id="SVGID_3_" gradientUnits="userSpaceOnUse" x1="665.4766" y1="489.0605" x2="665.4766" y2="353.9829">
	<stop  offset="0" style="stop-color:#E82D37"/>
	<stop  offset="1" style="stop-color:#00697F"/>
</linearGradient>
<path fill="none" stroke="url(#SVGID_3_)" stroke-width="12" stroke-miterlimit="10" d="M575.428,354.625
	c0,0-13.942,129.475,89.743,128.43c103.685-1.042,90.43-128.43,90.43-128.43"/>
<path fill="#E82D37" d="M618.223,418.682l-0.166,19.907c0,0,5.493,11.479,15.863,12.522l0.268-32.32"/>
<path fill="#E82D37" d="M643.19,418.949l1.064,30.22c0,0,1.581,9.021,18.344,9.355l0.329-39.534"/>
<path fill="#E82D37" d="M692.817,419.292l-1.456,30.202c0,0-1.617,8.999-18.385,9.103l0.328-39.534"/>
<path fill="#E82D37" d="M717.212,419.364l-0.167,19.908c0,0-6.48,11.396-16.068,12.303l0.269-32.322"/>
<rect x="661" y="483" fill="#E82D37" width="7" height="57"/>
<rect x="600" y="527" fill="#E82D37" width="134" height="23"/>
</svg>
